<svg aria-label="instagram" class="a4e icon" width="30" height="30" viewBox="0 0 30 30" fill="none" xmlns="http://www.w3.org/2000/svg">
<!-- DO NOT REMOVE | copyright 2023 by apps4everyone.tech under MIT license -->
<g fill="currentColor">
<path fill-rule="evenodd" clip-rule="evenodd" d="M8 0C3.58172 0 0 3.58172 0 8V22C0 26.4183 3.58172 30 8 30H22C26.4183 30 30 26.4183 30 22V8C30 3.58172 26.4183 0 22 0H8ZM10.0531 3.0725C11.3331 3.01425 11.7421 3 15.0011 3H14.9974C18.2574 3 18.6649 3.01425 19.9449 3.0725C21.2224 3.131 22.0949 3.33325 22.86 3.63001C23.65 3.93626 24.3175 4.34626 24.985 5.01377C25.6525 5.68078 26.0625 6.35028 26.37 7.13954C26.665 7.90255 26.8675 8.77456 26.9275 10.0521C26.985 11.3321 27 11.7411 27 15.0001C27 18.2592 26.985 18.6672 26.9275 19.9472C26.8675 21.2242 26.665 22.0964 26.37 22.8597C26.0625 23.6487 25.6525 24.3182 24.985 24.9852C24.3182 25.6527 23.6497 26.0637 22.8607 26.3702C22.0972 26.667 21.2242 26.8692 19.9467 26.9277C18.6667 26.986 18.2589 27.0002 14.9996 27.0002C11.7408 27.0002 11.3321 26.986 10.0521 26.9277C8.77481 26.8692 7.90255 26.667 7.13904 26.3702C6.35028 26.0637 5.68078 25.6527 5.01402 24.9852C4.34676 24.3182 3.93676 23.6487 3.63001 22.8595C3.3335 22.0964 3.13125 21.2244 3.0725 19.9469C3.0145 18.6669 3 18.2592 3 15.0001C3 11.7411 3.015 11.3318 3.07225 10.0518C3.12975 8.77481 3.33225 7.90255 3.62976 7.13929C3.93726 6.35028 4.34726 5.68078 5.01477 5.01377C5.68178 4.34651 6.35128 3.93651 7.14054 3.63001C7.90355 3.33325 8.77556 3.131 10.0531 3.0725ZM14.6012 5.1624C14.3585 5.1623 14.1336 5.1622 13.9246 5.16252V5.15952C11.6881 5.16202 11.2591 5.17702 10.1521 5.22702C8.98206 5.28077 8.34681 5.47578 7.9238 5.64078C7.3638 5.85878 6.96379 6.11878 6.54379 6.53879C6.12378 6.95879 5.86328 7.3588 5.64578 7.9188C5.48153 8.34181 5.28602 8.97681 5.23252 10.1468C5.17502 11.4118 5.16352 11.7898 5.16352 14.9944C5.16352 18.1989 5.17502 18.5789 5.23252 19.8439C5.28577 21.0139 5.48153 21.6489 5.64578 22.0714C5.86378 22.6317 6.12378 23.0307 6.54379 23.4507C6.96379 23.8707 7.3638 24.1307 7.9238 24.3482C8.34706 24.5125 8.98206 24.708 10.1521 24.762C11.4171 24.8195 11.7968 24.832 15.0011 24.832C18.2052 24.832 18.5852 24.8195 19.8502 24.762C21.0202 24.7085 21.6557 24.5135 22.0782 24.3485C22.6385 24.131 23.0372 23.871 23.4572 23.451C23.8772 23.0312 24.1377 22.6325 24.3552 22.0724C24.5195 21.6499 24.715 21.0149 24.7685 19.8449C24.826 18.5799 24.8385 18.1999 24.8385 14.9974C24.8385 11.7948 24.826 11.4148 24.7685 10.1498C24.7152 8.97981 24.5195 8.3448 24.3552 7.9223C24.1372 7.3623 23.8772 6.96229 23.4572 6.54229C23.0375 6.12228 22.6382 5.86228 22.0782 5.64478C21.6552 5.48053 21.0202 5.28502 19.8502 5.23152C18.5849 5.17402 18.2052 5.16252 15.0011 5.16252C14.8626 5.16252 14.7294 5.16246 14.6012 5.1624ZM19.9667 8.59456C19.9667 7.7993 20.6117 7.15504 21.4067 7.15504V7.15454C22.2017 7.15454 22.8467 7.79955 22.8467 8.59456C22.8467 9.38957 22.2017 10.0346 21.4067 10.0346C20.6117 10.0346 19.9667 9.38957 19.9667 8.59456ZM8.83856 15.0001C8.83856 11.5968 11.5978 8.83756 15.0011 8.83756C18.4044 8.83756 21.1627 11.5968 21.1627 15.0001C21.1627 18.4034 18.4044 21.1614 15.0011 21.1614C11.5978 21.1614 8.83856 18.4034 8.83856 15.0001ZM19.0012 15.0001C19.0012 12.7909 17.2101 11.0001 15.0011 11.0001C12.7919 11.0001 11.0011 12.7909 11.0011 15.0001C11.0011 17.2091 12.7919 19.0002 15.0011 19.0002C17.2101 19.0002 19.0012 17.2091 19.0012 15.0001Z" fill="#00aaee"/>
</g>
</svg>
