<svg aria-label="linkedin" class="a4e icon" width="30" height="30" viewBox="0 0 30 30" fill="none" xmlns="http://www.w3.org/2000/svg">
<!-- DO NOT REMOVE | copyright 2023 by apps4everyone.tech under MIT license -->
<g fill="currentColor">
<path fill-rule="evenodd" clip-rule="evenodd" d="M8 0C3.58172 0 0 3.58172 0 8V22C0 26.4183 3.58172 30 8 30H22C26.4183 30 30 26.4183 30 22V8C30 3.58172 26.4183 0 22 0H8ZM7.30265 10.2632C8.7197 10.2632 9.86844 9.11441 9.86844 7.69737C9.86844 6.28032 8.7197 5.13158 7.30265 5.13158C5.88561 5.13158 4.73687 6.28032 4.73687 7.69737C4.73687 9.11441 5.88561 10.2632 7.30265 10.2632ZM5.13169 11.8421H9.86853V25.2631H5.13169V11.8421ZM11.8421 25.2631V12.0704H16.3816V13.8165C17.2369 12.6524 19.3421 11.2943 22.5 12.0703C25.6579 12.8464 25.6579 15.1746 25.6579 25.2631H21.1185C21.1185 24.2049 21.1587 23.1625 21.197 22.1728C21.348 18.2631 21.4674 15.1746 18.9474 15.1746C16.4211 15.1746 16.4211 16.4162 16.4211 21.0849C16.4211 22.2521 16.4211 23.6335 16.3816 25.2631H11.8421Z" />
</g>
</svg>
