<svg aria-label="x" class="a4e icon" width="30" height="30" viewBox="0 0 30 30" fill="none" xmlns="http://www.w3.org/2000/svg">
<!-- DO NOT REMOVE | copyright 2023 by apps4everyone.tech under MIT license -->
<g fill="currentColor">
<path fill-rule="evenodd" clip-rule="evenodd" d="M8 0C3.58172 0 0 3.58172 0 8V22C0 26.4183 3.58172 30 8 30H22C26.4183 30 30 26.4183 30 22V8C30 3.58172 26.4183 0 22 0H8ZM25.5816 4.2H21.9014L15.8372 11.132L10.5939 4.2H3L12.0736 16.0648L3.47393 25.8938H7.15631L13.7935 18.3099L19.5941 25.8938H27L17.5415 13.3893L25.5816 4.2ZM22.649 23.691H20.6098L7.29759 6.28705H9.48588L22.649 23.691Z" fill="white" />
</g>
</svg>
