<svg width="40" height="40" viewBox="0 0 40 40" fill="none" xmlns="http://www.w3.org/2000/svg">
<rect width="40" height="40" rx="8" fill="#00005A"/>
<path d="M37.185 23.5142H27.8399C27.9882 25.3832 29.8276 26.2732 31.9339 26.2732C33.4766 26.2732 34.7226 26.0656 35.939 25.6799L36.5323 28.7356C35.049 29.329 33.2393 29.6256 31.2813 29.6256C26.3565 29.6256 23.5381 26.7776 23.5381 22.2385C23.5381 18.5598 25.8225 14.4954 30.8659 14.4954C35.5533 14.4954 37.3333 18.1445 37.3333 21.7342C37.3333 22.5055 37.2443 23.1879 37.185 23.5142ZM27.8102 20.4288H33.1503C33.1503 19.3311 32.6756 17.4918 30.5989 17.4918C28.7002 17.4918 27.9289 19.2125 27.8102 20.4288Z" fill="#9A99FF"/>
<path d="M15.8372 24.1966H10.1114L8.6874 29.329H4L10.1114 9.33334H16.0448L22.2453 29.329H17.3799L15.8372 24.1966ZM10.7641 20.8145H15.1845L13.9385 16.5721C13.5825 15.3854 13.2265 13.9021 12.9298 12.7154H12.8705C12.5738 13.9021 12.2771 15.4151 11.9508 16.5721L10.7641 20.8145Z" fill="#9A99FF"/>
</svg>
