<svg width="40" height="40" viewBox="0 0 40 40" fill="none" xmlns="http://www.w3.org/2000/svg">
<rect width="40" height="40" rx="8" fill="#E87500"/>
<path d="M20.5466 21.5196C20.6029 20.5254 21.092 19.6476 21.8322 19.0272C22.5573 18.4174 23.5309 18.0445 24.5999 18.0445C25.6633 18.0445 26.6366 18.4172 27.3608 19.0272C28.1022 19.6476 28.5883 20.5254 28.6464 21.5196C28.7026 22.5391 28.2894 23.4907 27.5671 24.1954C26.8269 24.9103 25.7795 25.3619 24.5999 25.3619C23.4194 25.3619 22.3673 24.9131 21.6318 24.1954C20.9066 23.4909 20.4944 22.5445 20.5523 21.5243L20.5466 21.5196Z" fill="#235785"/>
<path d="M14.1981 23.6219C14.2047 24.011 14.3303 24.768 14.5169 25.3572C14.9111 26.6079 15.5802 27.765 16.5067 28.7789C17.4587 29.8254 18.6334 30.6668 19.9872 31.2656C21.4105 31.8914 22.9555 32.2118 24.5587 32.2118C26.1618 32.2096 27.7068 31.8836 29.1299 31.2504C30.4837 30.6452 31.6588 29.8047 32.6104 28.7526C33.5418 27.7275 34.2088 26.5713 34.6005 25.3197C34.7966 24.6981 34.922 24.0563 34.9743 23.4065C35.023 22.7761 35.0024 22.1397 34.9126 21.5034C34.7369 20.2773 34.3043 19.1021 33.643 18.0548C33.0398 17.0821 32.2565 16.2361 31.3251 15.5205L31.3279 15.5196L21.9634 8.36973C21.955 8.36317 21.9475 8.3566 21.9391 8.35098C21.3252 7.88176 20.2881 7.88363 19.6164 8.35285C18.9334 8.82887 18.8547 9.61496 19.4626 10.1097L19.4598 10.1116L23.3697 13.2719L11.466 13.2839H11.4501C10.4664 13.2848 9.51905 13.9258 9.33366 14.74C9.14147 15.5653 9.81061 16.2541 10.8365 16.2541L10.8346 16.2579L16.8665 16.2466L6.0735 24.4474C6.06038 24.4577 6.04538 24.468 6.03225 24.4783C5.01624 25.2504 4.68835 26.5385 5.32819 27.348C5.97929 28.1735 7.35929 28.1791 8.38608 27.3527L14.2591 22.5691C14.2591 22.5691 14.1728 23.2155 14.1803 23.5996L14.1981 23.6219ZM29.3294 25.7826C28.1181 27.0079 26.4194 27.7068 24.5887 27.7068C22.7533 27.7096 21.0545 27.0229 19.843 25.7986C19.251 25.1988 18.8172 24.5158 18.5474 23.785C18.2837 23.0659 18.182 22.2975 18.2495 21.5346C18.3136 20.7902 18.5356 20.068 18.9006 19.4161C19.2538 18.78 19.742 18.202 20.3397 17.7129C21.5193 16.7618 23.0162 16.241 24.5819 16.241C26.1543 16.2391 27.6515 16.7505 28.8311 17.7025C29.4287 18.1889 29.9151 18.764 30.2701 19.4001C30.6359 20.052 30.8576 20.7747 30.9203 21.5196C30.9868 22.2822 30.8852 23.0501 30.6224 23.7691C30.3536 24.5055 29.9188 25.1885 29.3256 25.7882L29.3294 25.7826Z" fill="white"/>
</svg>
