<svg width="40" height="40" viewBox="0 0 40 40" fill="none" xmlns="http://www.w3.org/2000/svg">
<rect width="40" height="40" rx="8" fill="#1572B6"/>
<path d="M10 10.8594L11.8912 32.0687L20.377 34.4241L28.8864 32.0656L30.7797 10.8594H10ZM26.2211 22.6925L25.6703 27.8234L25.6724 28.2629L20.3898 29.7383L20.3856 29.742L15.0609 28.283L14.7006 24.2188H17.3118L17.497 26.2733L20.3908 27.0455L20.3898 27.0491V27.0416L23.2947 26.2224L23.6013 22.8125H17.5293L17.4773 22.2605L17.3587 20.937L17.2966 20.2344H23.8323L24.07 17.6562H14.1154L14.0631 17.0495L13.9445 15.6362L13.8824 14.8438H26.913L26.8504 15.6252L26.2211 22.6925ZM26.2492 8.13453L24.5737 6.17188H26.2492V5H22.4992V6.02258L24.4656 7.8125H22.4992V8.98438H26.2492V8.13453ZM21.7961 8.13453L20.2007 6.17188H21.7961V5H18.2805V6.02258L20.0929 7.8125H18.2805V8.98438H21.7961V8.13453ZM17.5773 7.8125H15.7023V6.17188H17.5773V5H14.2961V8.98438H17.5773V7.8125Z" fill="white"/>
</svg>
