<svg width="40" height="40" viewBox="0 0 40 40" fill="none" xmlns="http://www.w3.org/2000/svg">
<rect width="40" height="40" rx="8" fill="#D9D9D9"/>
<path fill-rule="evenodd" clip-rule="evenodd" d="M28.3441 13H11.0577C11.9587 13.9188 13.0805 15.0487 14.2356 16.1769C15.5722 17.4825 16.9354 18.7681 18.0465 19.7205C18.6053 20.1995 19.0728 20.5703 19.4258 20.8134C19.4551 20.8335 19.4828 20.8522 19.5089 20.8696C19.5416 20.8487 19.5767 20.8258 19.6142 20.8007C19.9832 20.5548 20.4715 20.1814 21.0543 19.7015C22.2134 18.7469 23.6397 17.4594 25.039 16.1534C26.2376 15.0347 27.4034 13.9146 28.3441 13ZM9 15.1864V27C9 27.5523 9.44772 28 10 28H30C30.5523 28 31 27.5523 31 27V14.6004C30.9619 14.6376 30.9232 14.6754 30.884 14.7137C29.8715 15.7027 28.5034 17.0237 27.086 18.3466C25.6728 19.6655 24.1929 21.0031 22.9614 22.0173C22.3488 22.5217 21.7707 22.9686 21.2783 23.2969C21.0338 23.4599 20.7802 23.6141 20.5341 23.7329C20.3368 23.8281 19.9505 24 19.5 24C19.0446 24 18.6579 23.825 18.4592 23.7269C18.2136 23.6055 17.9634 23.4487 17.7245 23.2843C17.2436 22.9532 16.6837 22.5036 16.0941 21.9983C14.9084 20.9819 13.4903 19.6425 12.1394 18.3231C11.0006 17.2107 9.89663 16.0999 9 15.1864ZM6 14C6 11.7909 7.79086 10 10 10H30C32.2091 10 34 11.7909 34 14V27C34 29.2091 32.2091 31 30 31H10C7.79086 31 6 29.2091 6 27V14ZM19.1838 21.051C19.1841 21.0505 19.1918 21.0471 19.2062 21.0423C19.1908 21.0491 19.1836 21.0515 19.1838 21.051ZM19.806 21.0458C19.8204 21.0509 19.8281 21.0545 19.8283 21.055C19.8286 21.0555 19.8213 21.0529 19.806 21.0458Z" fill="#00005C"/>
</svg>
