<svg width="40" height="40" viewBox="0 0 40 40" fill="none" xmlns="http://www.w3.org/2000/svg">
<rect width="40" height="40" rx="8" fill="white"/>
<path d="M34.3836 27.6029C33.3148 27.8748 32.6539 27.6146 32.0609 26.724C30.7297 24.7295 29.2602 22.8263 27.8422 20.8881C27.6594 20.6373 27.4695 20.3912 27.2328 20.0795C25.5547 22.3435 23.8789 24.4998 22.3062 26.7428C21.7437 27.5443 21.1531 27.8935 20.1031 27.6099L26.4125 19.142L20.5391 11.4943C21.5492 11.2974 22.2477 11.3982 22.8664 12.3029C24.2328 14.2998 25.7398 16.2006 27.2422 18.2115C28.7539 16.2076 30.2422 14.3045 31.6484 12.3263C32.2133 11.5248 32.8203 11.2201 33.8352 11.5154C33.0664 12.5349 32.3141 13.5381 31.557 14.5342C30.5352 15.8771 29.532 17.2365 28.4727 18.5513C28.0953 19.0201 28.1562 19.3248 28.4937 19.7678C30.4531 22.3435 32.3891 24.9451 34.3836 27.6029ZM5.00703 19.0013C5.17578 18.1553 5.28828 17.2928 5.52266 16.4631C6.92891 11.4404 12.6945 9.35213 16.6555 12.4646C18.9758 14.2904 19.5523 16.8638 19.4375 19.7654H6.35938C6.1625 24.9709 9.91016 28.1138 14.6867 26.5107C16.3625 25.9482 17.3492 24.6357 17.8437 22.9951C18.0945 22.1724 18.5094 22.0435 19.2828 22.2779C18.8867 24.331 17.9891 26.0467 16.1141 27.1201C13.3016 28.7279 9.28672 28.2076 7.175 25.974C5.92812 24.6615 5.39844 23.0279 5.16406 21.2631C5.12891 20.9818 5.05625 20.7053 5 20.4263C5.00469 19.9513 5.00703 19.4763 5.00703 19.0013ZM6.38281 18.6521H18.2023C18.125 14.8881 15.7813 12.2138 12.5773 12.1904C9.06172 12.1623 6.53516 14.7732 6.38281 18.6521Z" fill="black"/>
</svg>
