<svg width="40" height="40" viewBox="0 0 40 40" fill="none" xmlns="http://www.w3.org/2000/svg">
<rect width="40" height="40" rx="8" fill="#D9D9D9"/>
<path d="M15.0391 35.2344C17.8281 35.2344 20.0781 32.9844 20.0781 30.1953V25.1562H15.0391C12.25 25.1562 10 27.4063 10 30.1953C10 32.9844 12.25 35.2344 15.0391 35.2344Z" fill="#0ACF83"/>
<path d="M10 20.1172C10 17.3281 12.25 15.0781 15.0391 15.0781H20.0781V25.1562H15.0391C12.25 25.1562 10 22.9062 10 20.1172Z" fill="#A259FF"/>
<path d="M10 10.0391C10 7.25 12.25 5 15.0391 5H20.0781V15.0781H15.0391C12.25 15.0781 10 12.8281 10 10.0391Z" fill="#F24E1E"/>
<path d="M20.0781 5H25.1172C27.9062 5 30.1562 7.25 30.1562 10.0391C30.1562 12.8281 27.9062 15.0781 25.1172 15.0781H20.0781V5Z" fill="#FF7262"/>
<path d="M30.1562 20.1172C30.1562 22.9062 27.9062 25.1562 25.1172 25.1562C22.3281 25.1562 20.0781 22.9062 20.0781 20.1172C20.0781 17.3281 22.3281 15.0781 25.1172 15.0781C27.9062 15.0781 30.1562 17.3281 30.1562 20.1172Z" fill="#1ABCFE"/>
</svg>
