<svg width="40" height="40" viewBox="0 0 40 40" fill="none" xmlns="http://www.w3.org/2000/svg">
<rect width="40" height="40" rx="8" fill="#E44D26"/>
<path d="M10 10.9468L11.8954 32.0216L20.4006 34.2908L28.9295 32.0645L30.827 10.9468H10ZM26.8846 15.7447L26.7658 17.112L26.7135 17.7437H16.7364L16.9748 20.5562H26.4763L26.4128 21.0791L25.7999 27.8546L25.7549 28.2507L20.4135 29.6884V29.6872L20.4072 29.69L15.0688 28.3034L14.7065 24.3062H17.324L17.5094 26.289L20.4121 27.0247L20.4135 26.9698V26.9727L23.3226 26.3518L23.6263 23.1343H14.59L13.9492 15.9071L13.8866 15.1655H26.947L26.8846 15.7447ZM11.9657 5H13.2834V6.30219H14.489V5H15.8069V8.94266H14.489V7.62242H13.2836V8.94266H11.9657V5ZM17.5396 6.30758H16.3795V5H20.0181V6.30758H18.8575V8.94266H17.5396V6.30758ZM20.5956 5H21.9695L22.8149 6.38539L23.6594 5H25.034V8.94266H23.7212V6.98844L22.8149 8.39023H22.792L21.8849 6.98844V8.94266H20.5954L20.5956 5ZM25.69 5H27.0081V7.63953H28.8613V8.94289H25.69V5Z" fill="white"/>
</svg>
