<svg width="40" height="40" viewBox="0 0 40 40" fill="none" xmlns="http://www.w3.org/2000/svg">
<rect width="40" height="40" rx="8" fill="#2D0402"/>
<path d="M33.5464 30.0667H28.4797V13.7667H33.5464V30.0667ZM31.0131 6.66666C32.6464 6.66666 33.6797 7.76666 33.7131 9.23332C33.7131 10.6333 32.6464 11.7667 30.9797 11.7667C29.3797 11.7667 28.3131 10.6333 28.3464 9.23332C28.3131 7.76666 29.3797 6.66666 31.0131 6.66666Z" fill="#FF9A00"/>
<path d="M18.6333 24.3H12.2L10.6 30.0667H5.33331L12.2 7.60001H18.8666L25.8333 30.0667H20.3666L18.6333 24.3ZM12.9333 20.5H17.9L16.5 15.7333C16.1 14.4 15.7 12.7333 15.3666 11.4H15.3C14.9666 12.7333 14.6333 14.4333 14.2666 15.7333L12.9333 20.5Z" fill="#FF9A00"/>
</svg>
