<svg width="40" height="40" viewBox="0 0 40 40" fill="none" xmlns="http://www.w3.org/2000/svg">
<path d="M20.0017 0C14.57 0 13.8883 0.0237504 11.755 0.120834C9.62583 0.218334 8.1725 0.555417 6.90083 1.05C5.58542 1.56083 4.46958 2.24417 3.35792 3.35625C2.24542 4.46792 1.56208 5.58375 1.04958 6.89875C0.55375 8.17083 0.21625 9.62458 0.120416 11.7529C0.0249998 13.8862 0 14.5683 0 20C0 25.4317 0.0241671 26.1112 0.120834 28.2446C0.21875 30.3738 0.555834 31.8271 1.05 33.0987C1.56125 34.4142 2.24458 35.53 3.35667 36.6417C4.46792 37.7542 5.58375 38.4392 6.89833 38.95C8.17083 39.4446 9.62458 39.7817 11.7533 39.8792C13.8867 39.9762 14.5679 40 19.9992 40C25.4313 40 26.1108 39.9762 28.2442 39.8792C30.3733 39.7817 31.8283 39.4446 33.1008 38.95C34.4158 38.4392 35.53 37.7542 36.6413 36.6417C37.7538 35.53 38.4371 34.4142 38.9496 33.0992C39.4412 31.8271 39.7788 30.3733 39.8787 28.245C39.9746 26.1117 39.9996 25.4317 39.9996 20C39.9996 14.5683 39.9746 13.8867 39.8787 11.7533C39.7788 9.62417 39.4412 8.17083 38.9496 6.89917C38.4371 5.58375 37.7538 4.46792 36.6413 3.35625C35.5288 2.24375 34.4163 1.56042 33.0996 1.05C31.8246 0.555417 30.3704 0.218334 28.2413 0.120834C26.1079 0.0237504 25.4288 0 19.9954 0H20.0017ZM18.2075 3.60417C18.74 3.60333 19.3342 3.60417 20.0017 3.60417C25.3417 3.60417 25.9746 3.62333 28.0833 3.71917C30.0333 3.80833 31.0917 4.13417 31.7967 4.40792C32.73 4.77042 33.3954 5.20375 34.095 5.90375C34.795 6.60375 35.2283 7.27042 35.5917 8.20375C35.8654 8.90792 36.1917 9.96625 36.2804 11.9162C36.3763 14.0246 36.3971 14.6579 36.3971 19.9954C36.3971 25.3329 36.3763 25.9662 36.2804 28.0746C36.1912 30.0246 35.8654 31.0829 35.5917 31.7871C35.2292 32.7204 34.795 33.385 34.095 34.0846C33.395 34.7846 32.7304 35.2179 31.7967 35.5804C31.0925 35.8554 30.0333 36.1804 28.0833 36.2696C25.975 36.3654 25.3417 36.3862 20.0017 36.3862C14.6612 36.3862 14.0283 36.3654 11.92 36.2696C9.97 36.1796 8.91167 35.8537 8.20625 35.58C7.27292 35.2175 6.60625 34.7842 5.90625 34.0842C5.20625 33.3842 4.77292 32.7192 4.40958 31.7854C4.13583 31.0813 3.80958 30.0229 3.72083 28.0729C3.625 25.9646 3.60583 25.3312 3.60583 19.9904C3.60583 14.6496 3.625 14.0196 3.72083 11.9113C3.81 9.96125 4.13583 8.90292 4.40958 8.19792C4.77208 7.26458 5.20625 6.59792 5.90625 5.89792C6.60625 5.19792 7.27292 4.76458 8.20625 4.40125C8.91125 4.12625 9.97 3.80125 11.92 3.71167C13.765 3.62833 14.48 3.60333 18.2075 3.59917V3.60417ZM30.6775 6.925C29.3525 6.925 28.2775 7.99875 28.2775 9.32417C28.2775 10.6492 29.3525 11.7242 30.6775 11.7242C32.0025 11.7242 33.0775 10.6492 33.0775 9.32417C33.0775 7.99917 32.0025 6.92417 30.6775 6.92417V6.925ZM20.0017 9.72917C14.3296 9.72917 9.73083 14.3279 9.73083 20C9.73083 25.6721 14.3296 30.2687 20.0017 30.2687C25.6737 30.2687 30.2708 25.6721 30.2708 20C30.2708 14.3279 25.6737 9.72917 20.0017 9.72917ZM20.0017 13.3333C23.6833 13.3333 26.6683 16.3179 26.6683 20C26.6683 23.6817 23.6833 26.6667 20.0017 26.6667C16.3196 26.6667 13.335 23.6817 13.335 20C13.335 16.3179 16.3196 13.3333 20.0017 13.3333Z" fill="url(#paint0_radial_2_41)"/>
<defs>
<radialGradient id="paint0_radial_2_41" cx="0" cy="0" r="1" gradientUnits="userSpaceOnUse" gradientTransform="translate(11 39.5) rotate(-55.5481) scale(52.1464 52.1459)">
<stop stop-color="#FEDA75"/>
<stop offset="0.207009" stop-color="#FA7E1E"/>
<stop offset="0.434022" stop-color="#D62976"/>
<stop offset="0.699147" stop-color="#9966FF"/>
<stop offset="0.886964" stop-color="#4F5BD5"/>
</radialGradient>
</defs>
</svg>
