<svg width="40" height="40" viewBox="0 0 40 40" fill="none" xmlns="http://www.w3.org/2000/svg">
<rect width="40" height="40" rx="8" fill="#F0DB4F"/>
<path d="M35.2274 31.0323C35.0125 29.6937 34.1397 28.5694 31.5543 27.5211C30.6562 27.1084 29.6549 26.8128 29.3566 26.1322C29.2506 25.7361 29.2366 25.513 29.3036 25.2732C29.496 24.4951 30.4248 24.2525 31.161 24.4756C31.6352 24.6345 32.084 24.9999 32.3547 25.5828C33.6208 24.763 33.6182 24.7684 34.5023 24.2049C34.1786 23.7031 34.0059 23.4716 33.794 23.2569C33.0325 22.4063 31.9949 21.9683 30.3355 22.0018L29.4712 22.1136C28.6429 22.3229 27.8535 22.7576 27.3906 23.3405C26.0017 24.9165 26.3978 27.6746 28.0879 28.8097C29.7529 30.0594 32.1988 30.3437 32.5112 31.5123C32.8152 32.9429 31.4598 33.406 30.1127 33.2415C29.1198 33.035 28.5677 32.5304 27.9707 31.6128C26.872 32.2487 26.872 32.2487 25.7423 32.8984C26.0102 33.4841 26.2916 33.7491 26.7407 34.2566C28.866 36.4123 34.1845 36.3064 35.1384 33.0434C35.177 32.9314 35.4339 32.1842 35.2274 31.0323ZM24.2387 22.1745H21.4945L21.4832 29.2695C21.4832 30.7784 21.5612 32.1617 21.3159 32.5857C20.9144 33.4196 19.874 33.3162 19.3998 33.1545C18.9173 32.9173 18.6719 32.5801 18.3876 32.1034C18.3095 31.9665 18.2509 31.8605 18.2313 31.8523L16 33.2187C16.371 33.9802 16.9176 34.6412 17.6177 35.0705C18.6634 35.6982 20.069 35.8906 21.539 35.5531C22.4957 35.2744 23.3212 34.6972 23.7534 33.8185C24.3782 32.6666 24.2441 31.2723 24.2385 29.7301C24.2526 27.2141 24.2387 24.6985 24.2387 22.1745Z" fill="#323330"/>
</svg>
