<svg width="40" height="40" viewBox="0 0 40 40" fill="none" xmlns="http://www.w3.org/2000/svg">
<rect width="40" height="40" rx="8" fill="#4FAA41"/>
<path fill-rule="evenodd" clip-rule="evenodd" d="M24.8055 13.2963C24.1951 11.396 23.2162 9.71414 21.8366 8.26687C21.4879 7.90078 21.1002 7.56539 20.8569 7.11C20.7032 6.82172 20.5567 6.52945 20.4069 6.2393L20.3118 6L20.2853 6.09422C20.2729 6.56766 20.0048 6.88852 19.671 7.18828C19.2951 7.52531 18.9454 7.89141 18.5844 8.24508L17.4744 9.705L16.577 11.3555L15.9768 12.9762L15.9587 13.0013C15.6285 14.0862 15.4656 15.2018 15.3857 16.3282C15.3555 16.7517 15.3901 17.1811 15.4138 17.6067C15.4478 18.2152 15.5535 18.813 15.7119 19.402C16.2878 21.5409 17.4566 23.3149 19.0548 24.8224C19.3515 25.1025 19.6724 25.3573 19.982 25.6235L20.1191 26.0941L20.2466 26.8245L20.3076 27.5869C20.3069 27.7416 20.3005 27.897 20.3097 28.0512C20.3123 28.0908 20.3638 28.1273 20.3929 28.1653L20.6516 28.2562L20.9209 28.361L20.8748 27.6834L20.8726 27.0159L20.9657 25.9992L21.0332 25.778L21.2265 25.4355C21.4651 25.2438 21.7208 25.0695 21.9381 24.8559C22.3312 24.4699 22.7235 24.0785 23.0753 23.6555C23.533 23.1071 23.9239 22.5063 24.2399 21.8658C24.4506 21.4362 24.6494 20.9979 24.8137 20.5491C24.9585 20.1534 25.0483 19.7374 25.1624 19.3303L25.1924 19.2424C25.428 18.1437 25.4676 17.0337 25.3811 15.9166C25.3115 15.0164 25.0998 14.1476 24.8055 13.2963ZM20.1414 25.0795C20.1775 24.8988 20.2223 24.7191 20.2548 24.5377C20.2223 24.7191 20.1777 24.8988 20.1414 25.0795ZM30.3533 29.4059C30.1598 29.0348 29.8757 28.7531 29.5002 28.5682C29.1857 28.4135 28.8475 28.3455 28.4997 28.3357C28.239 28.3282 27.9775 28.3416 27.7164 28.3448C27.4846 28.3477 27.2526 28.3516 27.0208 28.3495C26.7482 28.3467 26.4756 28.3385 26.203 28.3308C26.1578 28.3294 26.1257 28.3385 26.1046 28.3845C26.0715 28.4559 26.0324 28.5248 25.9919 28.6031L26.0373 28.6177C26.1726 28.6416 26.3085 28.662 26.443 28.6889C26.616 28.7234 26.6938 28.8227 26.7018 28.9685C26.7135 29.1762 26.7182 29.3843 26.7175 29.5924C26.714 30.416 26.7081 31.2396 26.702 32.063C26.7015 32.1173 26.7006 32.1741 26.6858 32.2252C26.6687 32.2842 26.6502 32.3606 26.6062 32.3897C26.5269 32.4406 26.4379 32.4745 26.3448 32.4893C26.2133 32.5109 26.1913 32.5167 26.1503 32.6461L26.1325 32.7108C26.1128 32.7813 26.1233 32.7952 26.1969 32.7959C26.6193 32.8005 27.0414 32.8097 27.4635 32.8083C27.8486 32.8069 28.2337 32.8303 28.6173 32.7579C28.9799 32.6897 29.3183 32.5702 29.6273 32.3679C30.028 32.1052 30.3163 31.7541 30.4684 31.2959C30.5912 30.9258 30.6187 30.5482 30.5769 30.1612C30.5509 29.8976 30.475 29.6412 30.3533 29.4059ZM29.6134 31.6702C29.3875 32.0906 29.0505 32.3714 28.5688 32.4455C28.2672 32.4916 27.9651 32.4783 27.6775 32.3641C27.4954 32.292 27.4276 32.1347 27.422 31.9488C27.4169 31.7667 27.4143 31.5845 27.4143 31.4023C27.4133 30.7615 27.4133 30.1207 27.4143 29.4802C27.4148 29.2784 27.4183 29.0761 27.4215 28.8741C27.4239 28.732 27.4537 28.6845 27.5922 28.673C28.2006 28.6219 28.7812 28.6875 29.2633 29.1157C29.5614 29.3805 29.7311 29.7183 29.8016 30.1062C29.8309 30.2679 29.8398 30.4334 29.8581 30.5974C29.8433 30.972 29.7927 31.3364 29.6134 31.6702ZM34.7202 30.9762C34.6002 30.6841 34.3729 30.5011 34.0872 30.3839C33.9897 30.3438 33.8891 30.3108 33.7839 30.2719L33.8207 30.2484C33.9344 30.1755 34.0609 30.1167 34.1589 30.027C34.397 29.8087 34.4959 29.5343 34.4495 29.2083C34.4055 28.8982 34.2508 28.6706 33.9744 28.523C33.7237 28.3894 33.4532 28.3406 33.1733 28.3409C32.6891 28.3413 32.2047 28.3486 31.7205 28.3495C31.5536 28.3498 31.3867 28.3373 31.2198 28.335C31.1875 28.3345 31.1394 28.3427 31.1256 28.3643C31.0874 28.4229 31.0621 28.4904 31.0349 28.5555C31.0192 28.5935 31.0347 28.6144 31.078 28.62C31.1945 28.6359 31.3108 28.6559 31.4275 28.6732C31.5887 28.6973 31.6668 28.7812 31.6766 28.9437L31.6787 29.04C31.679 29.5451 31.6806 30.0502 31.6785 30.5552C31.6755 31.0596 31.6707 31.564 31.6642 32.0684C31.6635 32.1319 31.6548 32.1956 31.6457 32.2587C31.6319 32.3538 31.581 32.4195 31.4835 32.4401L31.2076 32.4945C31.1751 32.501 31.128 32.5001 31.1146 32.5202C31.064 32.5959 31.0232 32.6787 31.0288 32.7785L31.0572 32.7863L31.9837 32.809L32.1695 32.8083C32.4901 32.8045 32.8112 32.8109 33.1314 32.7945C33.478 32.7771 33.8036 32.6742 34.1045 32.4973C34.4249 32.3086 34.6715 32.0599 34.7591 31.6859C34.8154 31.447 34.8156 31.2068 34.7202 30.9762ZM32.3664 28.8244C32.3678 28.7229 32.4126 28.6788 32.5133 28.6762C32.7615 28.6695 33.0081 28.6709 33.2476 28.7564C33.5575 28.867 33.748 29.1342 33.7445 29.4607C33.7429 29.5861 33.7448 29.7103 33.6986 29.8308C33.6074 30.068 33.4326 30.1931 33.1846 30.2175C33.0552 30.2306 32.9247 30.232 32.8094 30.2381L32.4245 30.2213C32.3734 30.2194 32.3512 30.1969 32.3514 30.1444L32.3664 28.8244ZM33.9615 31.987C33.8376 32.2568 33.6116 32.3986 33.3287 32.4478C33.1033 32.4865 32.8721 32.4763 32.6509 32.418C32.4855 32.3756 32.418 32.2427 32.3849 32.0953C32.3626 31.9966 32.3664 31.8792 32.3645 31.7766C32.3615 31.6181 32.3638 31.2893 32.3638 31.2893H32.3605C32.3605 31.0549 32.3612 30.852 32.3598 30.6272C32.3596 30.5787 32.3678 30.5545 32.4271 30.5564C32.6376 30.5627 32.8487 30.5662 33.0592 30.5745C33.2474 30.5817 33.4237 30.6375 33.5894 30.7268C33.8415 30.8627 33.9934 31.0709 34.0351 31.3568C34.067 31.5736 34.0534 31.7869 33.9615 31.987ZM10.8552 32.2397L10.8597 30.9654C10.8604 30.7737 10.836 30.5857 10.7732 30.4038C10.6 29.903 10.1223 29.6749 9.62499 29.8547C9.39882 29.9365 9.19608 30.0605 9.00249 30.2011C8.88975 30.2831 8.88975 30.2831 8.80819 30.1662C8.57733 29.8352 8.24757 29.722 7.86366 29.8441C7.61546 29.9229 7.39842 30.0577 7.19288 30.2142C7.17366 30.2288 7.13499 30.2449 7.1235 30.2363C7.10428 30.222 7.09092 30.188 7.09139 30.1624L7.10546 29.936C7.10663 29.8884 7.09749 29.8406 7.0928 29.7907C6.99999 29.8228 6.92592 29.8549 6.84835 29.8737C6.60858 29.9323 6.36717 29.9862 6.126 30.0413C6.06764 30.0546 6.006 30.0722 6.00038 30.1392C5.99452 30.2051 6.05803 30.2161 6.10725 30.2358C6.21085 30.2775 6.31374 30.3218 6.41616 30.3668C6.50217 30.4048 6.53428 30.4734 6.53382 30.5658C6.53217 30.9607 6.53475 31.3552 6.53241 31.7501C6.53147 31.9106 6.52397 32.0709 6.51671 32.2315C6.51014 32.3737 6.46163 32.4333 6.32382 32.4691C6.25069 32.4884 6.17639 32.5013 6.1028 32.5186C6.08663 32.5223 6.05897 32.5327 6.05874 32.5406C6.05569 32.6102 6.05194 32.6815 6.06366 32.7492C6.066 32.7614 6.1396 32.7614 6.18038 32.7661L6.2078 32.7645C6.49186 32.7602 6.77592 32.7558 7.06022 32.7527C7.21092 32.7511 7.36139 32.7525 7.52499 32.7525L7.54257 32.5252C7.44882 32.508 7.36514 32.4952 7.28264 32.4771C7.15397 32.449 7.09913 32.3808 7.09585 32.2509L7.0935 32.0651C7.0921 31.583 7.09022 31.1011 7.09022 30.619C7.09022 30.5489 7.11928 30.4934 7.18092 30.4514C7.31147 30.3633 7.44928 30.2932 7.60186 30.2541C7.92342 30.1718 8.20233 30.2862 8.32608 30.5597C8.36522 30.6459 8.39592 30.7413 8.4046 30.8351C8.45007 31.3184 8.43038 31.8021 8.40296 32.2854C8.3971 32.3897 8.34811 32.4422 8.24522 32.4677L8.00335 32.5188C7.98389 32.5238 7.95553 32.5106 7.95413 32.5268C7.94874 32.5936 7.95178 32.696 7.95178 32.696H8.00944L8.74585 32.7202C8.94764 32.7197 9.14967 32.7441 9.35124 32.7492C9.38733 32.7499 9.41944 32.7553 9.42155 32.7136C9.42385 32.6488 9.42299 32.584 9.41897 32.5193L9.38053 32.5125L9.17311 32.4659C9.03319 32.4328 8.98491 32.3796 8.98444 32.238C8.9828 31.8891 8.98749 31.5403 8.98444 31.1916C8.98265 30.9921 8.97522 30.7927 8.96217 30.5937C8.95866 30.5407 8.96686 30.506 9.00905 30.4762C9.13133 30.3869 9.26889 30.3205 9.41499 30.2805C9.8685 30.161 10.2398 30.4097 10.2632 30.8773C10.2862 31.3282 10.2765 31.7808 10.273 32.2327C10.2719 32.3899 10.2198 32.4375 10.0649 32.4797L10.0115 32.4935C9.8528 32.5315 9.85421 32.5315 9.86358 32.7C9.86663 32.7527 9.88116 32.7663 9.93741 32.7649C10.2606 32.7577 10.5838 32.7558 10.907 32.753C11.0392 32.7518 11.1714 32.753 11.3153 32.753L11.3446 32.5336C11.2183 32.5001 11.1018 32.4752 10.9893 32.4384C10.8899 32.4047 10.8548 32.3447 10.8552 32.2397ZM21.9855 30.3082C22.1186 30.1847 22.1195 30.0216 22.0823 29.8404C21.9768 29.9508 21.8587 30.0016 21.7239 30.0112C21.5432 30.0241 21.3658 30.0084 21.1975 29.9365C20.7423 29.741 20.2942 29.7548 19.8475 29.9693C19.4718 30.1493 19.2407 30.4298 19.2175 30.8552C19.2027 31.1278 19.2538 31.3859 19.4357 31.6027C19.5447 31.7325 19.6846 31.8166 19.8423 31.8748C19.9103 31.8998 19.9155 31.9322 19.8585 31.9755C19.8164 32.0073 19.7729 32.037 19.728 32.0646C19.6328 32.1245 19.537 32.1834 19.4406 32.2413C19.3841 32.2755 19.3649 32.3191 19.3834 32.3859C19.4376 32.5823 19.577 32.6958 19.7514 32.7785L19.8149 32.8228L19.7594 32.8784C19.5885 33.0169 19.4108 33.1477 19.2473 33.2946C19.1099 33.4181 19.0656 33.5836 19.1071 33.7662C19.1908 34.1306 19.4324 34.3561 19.7753 34.4597C20.3746 34.6411 20.9373 34.537 21.4504 34.182C21.7546 33.9713 21.9728 33.697 22.0391 33.3197C22.1134 32.8957 21.8779 32.5277 21.4562 32.4518C21.1773 32.4012 20.8919 32.3866 20.6097 32.3543C20.478 32.3393 20.3444 32.3304 20.2162 32.3002C20.1072 32.2744 20.053 32.1855 20.0631 32.0988C20.0732 32.0135 20.1639 31.9341 20.2677 31.9259C20.4768 31.909 20.6816 31.8764 20.8743 31.7883C21.3848 31.5548 21.6217 31.1461 21.5624 30.5958C21.5547 30.5217 21.5378 30.4486 21.5226 30.3623C21.6859 30.3898 21.853 30.4313 21.9855 30.3082ZM20.4365 32.8903C20.6441 32.8964 20.8804 32.9093 21.1087 32.9761C21.3095 33.0347 21.4748 33.1373 21.5235 33.3616C21.5823 33.6326 21.452 33.9021 21.1898 34.047C20.9441 34.1824 20.6774 34.1937 20.4069 34.1658C20.1754 34.1419 19.967 34.0617 19.8001 33.8906C19.5803 33.6654 19.5791 33.3537 19.7992 33.1291C19.9958 32.9285 20.1011 32.887 20.4365 32.8903ZM20.9561 31.2586C20.8351 31.6455 20.4831 31.699 20.2073 31.5752C19.9722 31.47 19.8698 31.2628 19.8161 31.0263C19.7952 30.9354 19.7903 30.8409 19.7781 30.7479C19.783 30.6145 19.8051 30.4866 19.8625 30.3666C20.0385 29.997 20.4709 30.019 20.7102 30.1863C20.8129 30.258 20.8844 30.3555 20.9291 30.4711C21.0288 30.7226 21.0383 31.0009 20.9561 31.2586ZM18.76 32.4921C18.6763 32.4793 18.5935 32.4608 18.5123 32.4368C18.3698 32.3932 18.3524 32.3665 18.3508 32.2158C18.3465 31.7958 18.3437 31.3758 18.3391 30.956C18.3367 30.7671 18.3142 30.5808 18.2563 30.4003C18.104 29.9245 17.6373 29.6691 17.1705 29.8095C16.9117 29.8875 16.6895 30.0326 16.4826 30.203L16.4071 30.2609L16.4073 30.1833C16.4123 30.094 16.4219 30.0047 16.4212 29.9154C16.4207 29.8688 16.4029 29.8219 16.3942 29.7809C16.2177 29.8341 16.0595 29.8875 15.898 29.9283C15.7361 29.9691 15.5708 29.9967 15.407 30.03C15.3257 30.0464 15.2659 30.0956 15.2673 30.1516C15.2694 30.2306 15.3348 30.2459 15.392 30.2695C15.4956 30.312 15.599 30.3548 15.7014 30.4003C15.7745 30.4329 15.8043 30.4934 15.8036 30.5719C15.7984 31.1177 15.7951 31.6638 15.7872 32.2099C15.7848 32.3824 15.7412 32.4279 15.5715 32.4659L15.4975 32.4806C15.3405 32.5076 15.336 32.5139 15.3468 32.6796L15.3477 32.707C15.3458 32.7708 15.3737 32.7914 15.4394 32.7907C15.8565 32.7858 16.274 32.7834 16.6912 32.7851C16.87 32.7858 16.8892 32.7717 16.8855 32.588L16.877 32.509C16.7748 32.4919 16.6771 32.4795 16.5815 32.4584C16.4814 32.4361 16.4455 32.3951 16.4362 32.2934C16.4275 32.2003 16.4247 32.1059 16.4237 32.0121C16.419 31.583 16.4153 31.1538 16.4132 30.7249C16.4127 30.6169 16.4326 30.5166 16.532 30.447C16.6783 30.3424 16.8507 30.2806 17.0301 30.2684C17.4023 30.2428 17.6851 30.4634 17.7053 30.8344C17.7301 31.2921 17.7226 31.7515 17.7285 32.2102C17.729 32.2444 17.7229 32.2788 17.7182 32.3128C17.7093 32.3798 17.6765 32.4302 17.6085 32.4476C17.5422 32.4649 17.4749 32.4804 17.4072 32.4907C17.3062 32.5057 17.304 32.505 17.2963 32.607L17.2989 32.6756C17.3108 32.7942 17.3111 32.7907 17.4311 32.7895C17.8347 32.7863 18.238 32.7841 18.6414 32.7846C18.8101 32.7851 18.8221 32.7771 18.8235 32.6032L18.823 32.562C18.8256 32.5174 18.8057 32.4994 18.76 32.4921ZM24.3972 29.8383C23.9741 29.7349 23.5729 29.8118 23.1918 30.0089C22.8215 30.2004 22.574 30.4964 22.4798 30.9052C22.3846 31.3184 22.4301 31.7215 22.6126 32.1052C22.7315 32.3543 22.9143 32.547 23.1632 32.6721C23.7458 32.9655 24.4586 32.8324 24.9156 32.4398C25.2763 32.1302 25.4087 31.718 25.4167 31.2077C25.4118 31.1566 25.4069 31.0582 25.3933 30.9607C25.3166 30.4052 24.932 29.9691 24.3972 29.8383ZM24.7176 31.984C24.6053 32.426 24.223 32.6224 23.7918 32.4705C23.5717 32.3932 23.4072 32.2453 23.2965 32.0454C23.042 31.586 22.993 31.0976 23.1379 30.5965C23.2344 30.2627 23.5091 30.0802 23.8358 30.1031C24.1279 30.1235 24.3524 30.2637 24.5172 30.5013C24.6908 30.7521 24.7579 31.0373 24.7757 31.3369C24.7787 31.3849 24.7762 31.433 24.7762 31.4813L24.7968 31.4836C24.771 31.6507 24.7588 31.8211 24.7176 31.984ZM13.7573 29.831C13.3122 29.7293 12.8952 29.8298 12.509 30.056C12.175 30.2515 11.9591 30.5435 11.8764 30.9251C11.7988 31.2816 11.8305 31.632 11.9568 31.9734C12.0337 32.1816 12.1501 32.3646 12.321 32.5073C12.6808 32.8076 13.1012 32.8835 13.5487 32.7998C13.9274 32.7288 14.2602 32.5605 14.5021 32.2458C14.7285 31.9514 14.8148 31.6134 14.8237 31.2471C14.8103 31.1311 14.807 31.013 14.7824 30.8998C14.6601 30.3347 14.3296 29.9616 13.7573 29.831ZM14.1203 31.9826C14.0118 32.4223 13.6234 32.6236 13.1952 32.4717C12.9203 32.374 12.7412 32.1727 12.628 31.9146C12.4466 31.5 12.4096 31.0685 12.527 30.6312C12.617 30.2967 12.8882 30.0504 13.3033 30.1095C13.558 30.1455 13.7568 30.2756 13.9049 30.4826C14.1051 30.7617 14.1709 31.0814 14.1801 31.4173V31.4859L14.1969 31.4885C14.1723 31.6535 14.1601 31.8213 14.1203 31.9826Z" fill="white"/>
</svg>
