<svg width="40" height="40" viewBox="0 0 40 40" fill="none" xmlns="http://www.w3.org/2000/svg">
<rect width="40" height="40" rx="8" fill="#83CD29"/>
<path d="M31.087 12.2796L20.7517 6.27844C20.0999 5.90719 19.2513 5.90719 18.5943 6.27844L8.14867 12.2796C7.47602 12.6666 7 13.3938 7 14.1717V26.1581C7 26.936 7.48844 27.6635 8.16109 28.0526L10.9209 29.6201C12.2399 30.2698 12.7061 30.2698 13.3063 30.2698C15.2594 30.2698 16.375 29.0887 16.375 27.0288V15.1952C16.375 15.0281 16.288 14.7795 16.124 14.7795H14.8061C14.6392 14.7795 14.2656 15.0281 14.2656 15.195V27.0286C14.2656 27.9417 13.4397 28.8504 11.8961 28.0786L9.04445 26.4349C8.94508 26.381 8.875 26.2725 8.875 26.1581V14.1717C8.875 14.0588 9.00508 13.9453 9.10516 13.8874L19.517 7.89656C19.6143 7.84148 19.7573 7.84148 19.8543 7.89656L30.1391 13.886C30.2376 13.9453 30.2029 14.0552 30.2029 14.1717V26.1581C30.2029 26.2725 30.2458 26.3838 30.1485 26.4389L19.8159 32.4333C19.7273 32.4865 19.6173 32.4865 19.5203 32.4333L16.8702 30.8515C16.7903 30.8051 16.6954 30.7884 16.6188 30.8313C15.8814 31.2492 15.7455 31.3048 15.0538 31.5445C14.8837 31.6038 14.6327 31.7067 15.1499 31.9966L18.6182 34.0484C18.9493 34.2396 19.325 34.3403 19.7073 34.3404C20.0922 34.3404 20.4691 34.2405 20.8012 34.0484L31.0867 28.0526C31.7594 27.6607 32.0781 26.936 32.0781 26.1581V14.1717C32.0781 13.3938 31.7594 12.6684 31.087 12.2796ZM22.9164 24.2587C20.1681 24.2587 19.5627 23.5005 19.3609 22.1339C19.3375 21.9867 19.2126 21.8107 19.0628 21.8107H17.7196C17.5534 21.8107 17.4198 22.0123 17.4198 22.1777C17.4198 23.9276 18.3712 26.0477 22.9166 26.0477C26.207 26.0477 28.0935 24.7692 28.0935 22.5066C28.0935 20.2631 26.5778 19.6744 23.3868 19.252C20.1613 18.8257 19.8337 18.6103 19.8337 17.8547C19.8337 17.2317 20.1112 16.4009 22.4995 16.4009C24.6334 16.4009 25.42 16.8588 25.7437 18.2972C25.7713 18.4324 25.8948 18.5295 26.0343 18.5295H27.3829C27.4659 18.5295 27.5451 18.4959 27.6032 18.4366C27.6595 18.3729 27.6892 18.293 27.6817 18.2072C27.4729 15.7303 25.8273 14.576 22.4992 14.576C19.5388 14.576 17.7728 15.8262 17.7728 17.9217C17.7728 20.1947 19.5299 20.8228 22.3717 21.1038C25.7713 21.4371 26.0357 21.934 26.0357 22.6027C26.0357 23.764 25.1034 24.2587 22.9164 24.2587Z" fill="white"/>
</svg>
