<svg width="40" height="40" viewBox="0 0 40 40" fill="none" xmlns="http://www.w3.org/2000/svg">
<rect width="40" height="40" rx="8" fill="#001E36"/>
<path d="M22.8857 29.8333L23.7857 26.2C24.719 26.7667 26.6523 27.4333 28.1523 27.4333C29.6857 27.4333 30.319 26.9 30.319 26.0667C30.319 25.2333 29.819 24.8333 27.919 24.2C24.5523 23.0667 23.2523 21.2333 23.2857 19.3C23.2857 16.2667 25.8857 13.9667 29.919 13.9667C31.819 13.9667 33.519 14.4 34.519 14.9L33.619 18.4C32.8857 18 31.4857 17.4667 30.0857 17.4667C28.8523 17.4667 28.1523 17.9667 28.1523 18.8C28.1523 19.5667 28.7857 19.9667 30.7857 20.6667C33.8857 21.7333 35.1857 23.3 35.219 25.7C35.219 28.7333 32.819 30.9667 28.1523 30.9667C26.019 30.9667 24.119 30.5 22.8857 29.8333Z" fill="#30A8FF"/>
<path d="M5.33331 30.6333V8.46667C6.89998 8.2 9.09998 8 12.2 8C15.3333 8 17.5666 8.6 19.0666 9.8C20.5 10.9333 21.4666 12.8 21.4666 15C21.4666 17.2 20.7333 19.0667 19.4 20.3333C17.6666 21.9667 15.1 22.7 12.1 22.7C11.4333 22.7 10.8333 22.6667 10.3666 22.6V30.6333H5.33331ZM10.3666 12.0333V18.6667C10.8 18.7667 11.3333 18.8 12.0666 18.8C14.7666 18.8 16.4333 17.4333 16.4333 15.1333C16.4333 13.0667 15 11.8333 12.4666 11.8333C11.4333 11.8333 10.7333 11.9333 10.3666 12.0333Z" fill="#30A8FF"/>
</svg>
