<svg width="40" height="40" viewBox="0 0 40 40" fill="none" xmlns="http://www.w3.org/2000/svg">
<rect width="40" height="40" rx="8" fill="#00005C"/>
<path d="M24.2422 31.9667V21.0333C24.2422 18.6333 24.1755 17.0667 24.1088 15.6667H28.4755L28.6422 18.6667H28.7755C29.6088 16.3 31.6088 15.3 33.1755 15.3C33.6422 15.3 33.8755 15.3 34.2422 15.3667V20.1333C33.8755 20.0667 33.4422 20 32.8755 20C31.0088 20 29.7422 21 29.4088 22.5667C29.3422 22.9 29.3088 23.3 29.3088 23.7V31.9667H24.2422Z" fill="#9A99FF"/>
<path d="M5.33331 31.9667V9.80001C6.89998 9.53334 9.09998 9.33334 12.2 9.33334C15.3333 9.33334 17.5666 9.93334 19.0666 11.1333C20.5 12.2667 21.4666 14.1333 21.4666 16.3333C21.4666 18.5333 20.7333 20.4 19.4 21.6667C17.6666 23.3 15.1 24.0333 12.1 24.0333C11.4333 24.0333 10.8333 24 10.3666 23.9333V31.9667H5.33331ZM10.3666 13.3667V20C10.8 20.1 11.3333 20.1333 12.0666 20.1333C14.7666 20.1333 16.4333 18.7667 16.4333 16.4667C16.4333 14.4 15 13.1667 12.4666 13.1667C11.4333 13.1667 10.7333 13.2667 10.3666 13.3667Z" fill="#9A99FF"/>
</svg>
