<svg width="40" height="40" viewBox="0 0 40 40" fill="none" xmlns="http://www.w3.org/2000/svg">
<rect width="40" height="40" rx="8" fill="#61DAFB"/>
<path d="M19.9297 17.8203C21.1335 17.8203 22.1094 16.8444 22.1094 15.6406C22.1094 14.4368 21.1335 13.4609 19.9297 13.4609C18.7259 13.4609 17.75 14.4368 17.75 15.6406C17.75 16.8444 18.7259 17.8203 19.9297 17.8203Z" fill="white"/>
<path d="M19.9297 23.6562C21.6406 25.3203 23.3281 26.3047 24.6875 26.3047C25.1328 26.3047 25.5547 26.2109 25.9063 26C27.125 25.2969 27.5703 23.5391 27.1484 21.0313C27.0781 20.5859 26.9844 20.1406 26.8672 19.6719C27.3359 19.5312 27.7578 19.3906 28.1797 19.25C30.5469 18.3359 31.8594 17.0703 31.8594 15.6875C31.8594 14.2813 30.5469 13.0156 28.1797 12.125C27.7578 11.9609 27.3359 11.8203 26.8672 11.7031C26.9844 11.2344 27.0781 10.7891 27.1484 10.3437C27.5469 7.78906 27.1016 6.00781 25.8828 5.30469C25.5313 5.09375 25.1094 5 24.6641 5C23.3281 5 21.6172 5.98437 19.9063 7.64844C18.2188 5.98437 16.5313 5 15.1719 5C14.7266 5 14.3047 5.09375 13.9531 5.30469C12.7344 6.00781 12.2891 7.76563 12.7109 10.2734C12.7813 10.7187 12.875 11.1641 12.9922 11.6328C12.5234 11.7734 12.1016 11.9141 11.6797 12.0547C9.3125 12.9688 8 14.2344 8 15.6172C8 17.0234 9.3125 18.2891 11.6797 19.1797C12.1016 19.3437 12.5234 19.4844 12.9922 19.6016C12.875 20.0703 12.7813 20.5156 12.7109 20.9609C12.3125 23.4687 12.7578 25.25 13.9531 25.9297C14.3047 26.1406 14.7266 26.2344 15.1719 26.2344C16.5313 26.2812 18.2188 25.2969 19.9297 23.6562ZM18.6172 20.4922C19.0391 20.5156 19.4844 20.5156 19.9297 20.5156C20.375 20.5156 20.8203 20.5156 21.2422 20.4922C20.8203 21.0547 20.375 21.5703 19.9297 22.0625C19.4844 21.5703 19.0391 21.0547 18.6172 20.4922ZM15.7109 18.0781C15.9453 18.4766 16.1563 18.8516 16.4141 19.2266C15.6875 19.1328 15.0078 19.0156 14.3516 18.875C14.5625 18.2422 14.7969 17.5859 15.0781 16.9297C15.2656 17.3047 15.4766 17.7031 15.7109 18.0781ZM14.3516 12.4297C15.0078 12.2891 15.6875 12.1719 16.4141 12.0781C16.1797 12.4531 15.9453 12.8281 15.7109 13.2266C15.4766 13.625 15.2656 14 15.0781 14.3984C14.7734 13.7188 14.5391 13.0625 14.3516 12.4297ZM15.6406 15.6406C15.9453 15.0078 16.2734 14.375 16.6484 13.7422C17 13.1328 17.3984 12.5234 17.7969 11.9141C18.5 11.8672 19.2031 11.8437 19.9297 11.8437C20.6797 11.8437 21.3828 11.8672 22.0625 11.9141C22.4844 12.5234 22.8594 13.1328 23.2109 13.7422C23.5859 14.375 23.9141 15.0078 24.2188 15.6406C23.9141 16.2734 23.5859 16.9062 23.2109 17.5391C22.8594 18.1484 22.4609 18.7578 22.0625 19.3672C21.3594 19.4141 20.6563 19.4375 19.9297 19.4375C19.1797 19.4375 18.4766 19.4141 17.7969 19.3672C17.375 18.7578 17 18.1484 16.6484 17.5391C16.2734 16.9062 15.9453 16.2734 15.6406 15.6406ZM24.8047 14.375L24.1719 13.2031C23.9375 12.8047 23.7266 12.4297 23.4688 12.0547C24.1953 12.1484 24.875 12.2656 25.5313 12.4063C25.3203 13.0625 25.0859 13.7188 24.8047 14.375ZM24.8047 16.9063C25.0859 17.5625 25.3203 18.2188 25.5313 18.8516C24.875 18.9922 24.1953 19.1094 23.4688 19.2031C23.7031 18.8281 23.9375 18.4531 24.1719 18.0547C24.3828 17.7031 24.5938 17.3047 24.8047 16.9063ZM25.3438 25.0391C25.1562 25.1562 24.9219 25.2031 24.6641 25.2031C23.5156 25.2031 22.0859 24.2656 20.6797 22.8594C21.3594 22.1328 22.0156 21.3125 22.6719 20.3984C23.7734 20.3047 24.8281 20.1406 25.8125 19.9062C25.9297 20.3281 26 20.75 26.0703 21.1719C26.3984 23.1641 26.1406 24.5938 25.3438 25.0391ZM26.5625 12.6875C29.1875 13.4375 30.7578 14.5859 30.7578 15.6406C30.7578 16.5547 29.6797 17.4688 27.7813 18.1953C27.4063 18.3359 26.9844 18.4766 26.5625 18.5938C26.2578 17.6328 25.8828 16.6484 25.4141 15.6406C25.8828 14.6328 26.2813 13.6484 26.5625 12.6875ZM24.6875 6.07812C24.9453 6.07812 25.1562 6.125 25.3672 6.24219C26.1406 6.6875 26.4219 8.09375 26.0938 10.1094C26.0234 10.5078 25.9297 10.9297 25.8359 11.375C24.8516 11.1641 23.7969 11 22.6953 10.8828C22.0625 9.96875 21.3828 9.14844 20.7031 8.42188C22.1094 7.03906 23.5391 6.07812 24.6875 6.07812ZM21.2422 10.7891C20.8203 10.7656 20.375 10.7656 19.9297 10.7656C19.4844 10.7656 19.0391 10.7656 18.6172 10.7891C19.0391 10.2266 19.4844 9.71094 19.9297 9.21875C20.375 9.71094 20.8203 10.25 21.2422 10.7891ZM14.5156 6.24219C14.7031 6.125 14.9375 6.07812 15.1953 6.07812C16.3437 6.07812 17.7734 7.01563 19.1797 8.42188C18.5 9.14844 17.8437 9.96875 17.1875 10.8828C16.0859 10.9766 15.0313 11.1406 14.0469 11.375C13.9297 10.9531 13.8594 10.5312 13.7891 10.1094C13.4609 8.11719 13.7188 6.71094 14.5156 6.24219ZM13.2969 18.5938C10.6719 17.8437 9.10156 16.6953 9.10156 15.6406C9.10156 14.7266 10.1797 13.8125 12.0781 13.0859C12.4531 12.9453 12.875 12.8047 13.2969 12.6875C13.6016 13.6484 13.9766 14.6328 14.4453 15.6406C13.9766 16.6484 13.5781 17.6562 13.2969 18.5938ZM13.7891 21.1719C13.8594 20.7734 13.9531 20.3516 14.0469 19.9062C15.0313 20.1172 16.0859 20.2813 17.1875 20.3984C17.8203 21.3125 18.5 22.1328 19.1797 22.8594C17.7734 24.2422 16.3437 25.2031 15.1953 25.2031C14.9375 25.2031 14.7266 25.1562 14.5156 25.0391C13.7188 24.5938 13.4609 23.1641 13.7891 21.1719ZM12.8047 30.8281C13.3203 30.1953 13.3438 29.4922 13.0625 28.7891C12.7813 28.0859 12.1953 27.7578 11.4687 27.7344C10.6016 27.7109 9.71094 27.7344 8.84375 27.7344H8.67969V33.8047H9.38281V31.5078H10.4844C10.625 31.5078 10.7422 31.5547 10.8125 31.6719L12.2188 33.8516C12.2422 33.8984 12.3125 33.9687 12.3594 33.9687H13.2734C12.7109 33.1016 12.1719 32.2813 11.6094 31.4375C12.1016 31.3672 12.5234 31.2031 12.8047 30.8281ZM9.38281 30.7812V28.4609H9.64062C10.1797 28.4609 10.7422 28.4375 11.2812 28.4844C11.9141 28.5078 12.3594 29 12.3594 29.6328C12.3594 30.2656 11.8437 30.7578 11.2109 30.7812C10.6484 30.8047 10.0859 30.7812 9.38281 30.7812ZM18.4531 31.0859C18.0781 29.4453 16.5781 29.0234 15.4297 29.5391C14.5391 29.9375 14.1406 30.7109 14.1172 31.6719C14.0938 32.3984 14.3047 33.0547 14.8672 33.5469C15.5 34.1094 16.2734 34.1797 17.0703 34.0391C17.5156 33.9453 17.9141 33.7344 18.2187 33.4063C18.1016 33.2422 17.9844 33.0781 17.8672 32.9375C17.2109 33.5 16.4844 33.6875 15.6875 33.3125C15.1719 33.0547 14.9141 32.4219 14.8672 31.9531H18.5V31.6484C18.5234 31.4375 18.5 31.25 18.4531 31.0859ZM14.9141 31.4609C14.8437 30.7578 15.5469 30.0078 16.3203 30.0078C17.2109 29.9844 17.7734 30.5234 17.7969 31.4609H14.9141ZM22.1094 29.4219C21.7578 29.3516 21.3828 29.3281 21.0312 29.3516C20.4687 29.3984 19.9766 29.6563 19.5781 30.0781C19.6953 30.2422 19.7891 30.4063 19.9297 30.5938C19.9766 30.5469 20.0234 30.5 20.0703 30.4766C20.4453 30.125 20.8906 29.9375 21.4297 29.9844C21.8516 30.0078 22.25 30.1484 22.3672 30.5703C22.4609 30.8984 22.4375 31.25 22.4609 31.6016C22.3906 31.6016 22.3672 31.5781 22.3438 31.5547C21.7813 31.0859 21.1484 30.9922 20.4688 31.1562C19.8359 31.3203 19.4375 31.8125 19.3906 32.4453C19.3437 33.1719 19.6719 33.7109 20.3047 33.9687C20.7031 34.1328 21.1484 34.1328 21.5703 34.0391C21.8984 33.9688 22.0391 33.7813 22.5078 33.5234V33.8281H23.1641C23.1641 32.8906 23.1875 31.7422 23.1641 30.6641C23.1641 29.9844 22.7656 29.5625 22.1094 29.4219ZM22.4375 32.375C22.4141 32.4453 22.4375 32.5156 22.4375 32.5859C22.4375 33.0781 22.3203 33.2422 21.8516 33.4297C21.5234 33.5469 21.1719 33.5938 20.8203 33.4766C20.4219 33.3594 20.1406 33.0078 20.1406 32.6094C20.1172 32.2109 20.375 31.8125 20.7734 31.6953C21.3125 31.5078 21.8047 31.625 22.25 31.9531C22.3906 32.0703 22.4844 32.1875 22.4375 32.375ZM26.0938 30.0547C26.7031 29.8672 27.2656 29.9844 27.6875 30.5L27.7578 30.5469C27.9219 30.4062 28.0625 30.2656 28.25 30.1016C28.1797 30.0312 28.1563 29.9844 28.1094 29.9141C27.4297 29.1875 26.0938 29.0938 25.2734 29.6797C24.125 30.5234 24.1484 32.1641 24.7109 33.0312C25.25 33.8516 26.0234 34.1328 26.9375 34.0156C27.4766 33.9453 27.9219 33.6875 28.2734 33.2422C28.1094 33.1016 27.9453 32.9609 27.7813 32.7969C27.7344 32.8437 27.7109 32.8672 27.6875 32.9141C27.0547 33.6172 26 33.5469 25.4375 32.7969C25.1094 32.3516 25.0391 31.8359 25.1328 31.3203C25.1797 30.7344 25.4844 30.2656 26.0938 30.0547ZM30.9688 33.2422C30.9219 33.2656 30.8984 33.2891 30.8984 33.2891C30.7109 33.4297 30.5234 33.4531 30.3125 33.3828C30.1016 33.2891 30.0781 33.1016 30.0547 32.9141V30.2422C30.0547 30.1953 30.0547 30.2891 30.0781 30.0547H30.9688V29.3516H30.0312V28.1797H29.3281V29.4453H28.7188C28.6719 29.4453 28.6016 29.4922 28.6016 29.5391C28.5781 29.7031 28.6016 29.8203 28.6016 30.0547H29.3516V33.0547C29.3516 33.4297 29.4453 33.7578 29.7734 33.9453C30.125 34.1562 30.8047 34.1094 31.1094 33.8516C31.1562 33.8281 31.1797 33.7344 31.1797 33.7109C31.1094 33.5703 31.0391 33.4062 30.9688 33.2422Z" fill="white"/>
</svg>
