<svg width="40" height="40" viewBox="0 0 40 40" fill="none" xmlns="http://www.w3.org/2000/svg">
<rect width="40" height="40" rx="8" fill="black"/>
<path d="M25.7366 19.587C25.6289 19.5354 25.5195 19.4857 25.4087 19.4382C25.2158 15.8826 23.2729 13.847 20.0107 13.8262C19.9959 13.8261 19.9812 13.8261 19.9664 13.8261C18.0152 13.8261 16.3923 14.659 15.3935 16.1746L17.1876 17.4053C17.9338 16.2732 19.1048 16.0319 19.9673 16.0319C19.9772 16.0319 19.9872 16.0319 19.9971 16.032C21.0712 16.0388 21.8818 16.3511 22.4064 16.9602C22.7882 17.4036 23.0435 18.0163 23.1699 18.7896C22.2176 18.6277 21.1876 18.5779 20.0866 18.6411C16.985 18.8197 14.991 20.6286 15.1249 23.1422C15.1929 24.4172 15.8281 25.5141 16.9134 26.2306C17.831 26.8363 19.0129 27.1326 20.2412 27.0655C21.8633 26.9766 23.1358 26.3577 24.0236 25.226C24.6978 24.3667 25.1242 23.253 25.3125 21.8497C26.0855 22.3163 26.6585 22.9302 26.9749 23.6682C27.5129 24.9228 27.5443 26.9844 25.8621 28.6651C24.3883 30.1375 22.6167 30.7745 19.9393 30.7941C16.9693 30.7721 14.7232 29.8197 13.2628 27.9632C11.8952 26.2247 11.1885 23.7138 11.1621 20.5C11.1885 17.2862 11.8952 14.7752 13.2628 13.0368C14.7232 11.1803 16.9693 10.2279 19.9392 10.2058C22.9307 10.228 25.216 11.1851 26.7323 13.0505C27.4758 13.9653 28.0363 15.1157 28.4059 16.4571L30.5083 15.8961C30.0604 14.2451 29.3556 12.8224 28.3965 11.6424C26.4526 9.25087 23.6096 8.02541 19.9465 8H19.9319C16.2762 8.02532 13.4651 9.25544 11.5766 11.6562C9.89608 13.7925 9.02922 16.7651 9.00009 20.4912L9 20.5L9.00009 20.5088C9.02922 24.2349 9.89608 27.2076 11.5766 29.3439C13.4651 31.7445 16.2762 32.9747 19.9319 33H19.9465C23.1966 32.9775 25.4875 32.1266 27.3747 30.241C29.8439 27.7742 29.7695 24.6822 28.9557 22.784C28.3719 21.4228 27.2587 20.3172 25.7366 19.587ZM20.1251 24.8629C18.7657 24.9395 17.3534 24.3293 17.2838 23.0224C17.2322 22.0534 17.9734 20.9721 20.2085 20.8433C20.4645 20.8286 20.7156 20.8214 20.9624 20.8214C21.7742 20.8214 22.5337 20.9002 23.2242 21.0512C22.9667 24.2676 21.456 24.7898 20.1251 24.8629Z" fill="white"/>
</svg>
