<svg width="40" height="40" viewBox="0 0 40 40" fill="none" xmlns="http://www.w3.org/2000/svg">
<rect width="40" height="40" rx="8" fill="black"/>
<path d="M28.9694 14.3466C28.8007 14.2594 28.6364 14.1638 28.4773 14.0602C28.0144 13.7542 27.59 13.3936 27.2133 12.9863C26.2706 11.9077 25.9185 10.8135 25.7889 10.0473H25.7941C25.6857 9.41144 25.7305 9 25.7373 9H21.4438V25.6023C21.4438 25.8252 21.4438 26.0455 21.4344 26.2632C21.4344 26.2903 21.4318 26.3153 21.4302 26.3444C21.4302 26.3564 21.4302 26.3689 21.4276 26.3814C21.4276 26.3845 21.4276 26.3877 21.4276 26.3908C21.3824 26.9865 21.1914 27.5619 20.8716 28.0665C20.5517 28.5711 20.1128 28.9893 19.5933 29.2844C19.052 29.5924 18.4397 29.7539 17.8169 29.7531C15.8164 29.7531 14.1952 28.122 14.1952 26.1075C14.1952 24.093 15.8164 22.4618 17.8169 22.4618C18.1955 22.4615 18.5719 22.5211 18.9319 22.6384L18.9371 18.2667C17.8441 18.1255 16.7337 18.2124 15.676 18.5218C14.6183 18.8313 13.6361 19.3566 12.7916 20.0646C12.0516 20.7075 11.4294 21.4747 10.9531 22.3316C10.7719 22.6441 10.0881 23.8998 10.0053 25.9377C9.95319 27.0944 10.3006 28.2928 10.4662 28.7881V28.7985C10.5703 29.0901 10.974 30.0854 11.6317 30.9244C12.1622 31.5974 12.7888 32.1887 13.4916 32.679V32.6686L13.502 32.679C15.5805 34.0915 17.8851 33.9988 17.8851 33.9988C18.284 33.9826 19.6204 33.9988 21.138 33.2795C22.8213 32.4822 23.7796 31.2942 23.7796 31.2942C24.3918 30.5844 24.8786 29.7755 25.2191 28.9021C25.6076 27.8808 25.7373 26.6559 25.7373 26.1663V17.3584C25.7894 17.3897 26.4831 17.8485 26.4831 17.8485C26.4831 17.8485 27.4825 18.4891 29.0418 18.9063C30.1605 19.2031 31.6677 19.2656 31.6677 19.2656V15.0033C31.1396 15.0606 30.0673 14.894 28.9694 14.3466Z" fill="#FE2B54"/>
<path d="M27.9694 11.3466C27.8007 11.2594 27.6364 11.1638 27.4773 11.0602C27.0144 10.7542 26.59 10.3936 26.2133 9.98626C25.2706 8.90767 24.9185 7.81345 24.7889 7.04734H24.7941C24.6857 6.41144 24.7305 6 24.7373 6H20.4438V22.6023C20.4438 22.8252 20.4438 23.0455 20.4344 23.2632C20.4344 23.2903 20.4318 23.3153 20.4302 23.3444C20.4302 23.3564 20.4302 23.3689 20.4276 23.3814C20.4276 23.3845 20.4276 23.3877 20.4276 23.3908C20.3824 23.9865 20.1914 24.5619 19.8716 25.0665C19.5517 25.5711 19.1128 25.9893 18.5933 26.2844C18.052 26.5924 17.4397 26.7539 16.8169 26.7531C14.8164 26.7531 13.1952 25.122 13.1952 23.1075C13.1952 21.093 14.8164 19.4618 16.8169 19.4618C17.1955 19.4615 17.5719 19.5211 17.9319 19.6384L17.9371 15.2667C16.8441 15.1255 15.7337 15.2124 14.676 15.5218C13.6183 15.8313 12.6361 16.3566 11.7916 17.0646C11.0516 17.7075 10.4294 18.4747 9.95314 19.3316C9.77189 19.6441 9.08807 20.8998 9.00527 22.9377C8.95319 24.0944 9.30056 25.2928 9.46618 25.7881V25.7985C9.57034 26.0901 9.97397 27.0854 10.6317 27.9244C11.1622 28.5974 11.7888 29.1887 12.4916 29.679V29.6686L12.502 29.679C14.5805 31.0915 16.8851 30.9988 16.8851 30.9988C17.284 30.9826 18.6204 30.9988 20.138 30.2795C21.8213 29.4822 22.7796 28.2942 22.7796 28.2942C23.3918 27.5844 23.8786 26.7755 24.2191 25.9021C24.6076 24.8808 24.7373 23.6559 24.7373 23.1663V14.3584C24.7894 14.3897 25.4831 14.8485 25.4831 14.8485C25.4831 14.8485 26.4825 15.4891 28.0418 15.9063C29.1605 16.2031 30.6677 16.2656 30.6677 16.2656V12.0033C30.1396 12.0606 29.0673 11.894 27.9694 11.3466Z" fill="#1FF5ED"/>
<path d="M27.9694 13.3466C27.8007 13.2594 27.6364 13.1638 27.4773 13.0602C27.0144 12.7542 26.59 12.3936 26.2133 11.9863C25.2706 10.9077 24.9185 9.81345 24.7889 9.04734H24.7941C24.6857 8.41144 24.7305 8 24.7373 8H20.4438V24.6023C20.4438 24.8252 20.4438 25.0455 20.4344 25.2632C20.4344 25.2903 20.4318 25.3153 20.4302 25.3444C20.4302 25.3564 20.4302 25.3689 20.4276 25.3814C20.4276 25.3845 20.4276 25.3877 20.4276 25.3908C20.3824 25.9865 20.1914 26.5619 19.8716 27.0665C19.5517 27.5711 19.1128 27.9893 18.5933 28.2844C18.052 28.5924 17.4397 28.7539 16.8169 28.7531C14.8164 28.7531 13.1952 27.122 13.1952 25.1075C13.1952 23.093 14.8164 21.4618 16.8169 21.4618C17.1955 21.4615 17.5719 21.5211 17.9319 21.6384L17.9371 17.2667C16.8441 17.1255 15.7337 17.2124 14.676 17.5218C13.6183 17.8313 12.6361 18.3566 11.7916 19.0646C11.0516 19.7075 10.4294 20.4747 9.95314 21.3316C9.77189 21.6441 9.08807 22.8998 9.00527 24.9377C8.95319 26.0944 9.30056 27.2928 9.46618 27.7881V27.7985C9.57034 28.0901 9.97397 29.0854 10.6317 29.9244C11.1622 30.5974 11.7888 31.1887 12.4916 31.679V31.6686L12.502 31.679C14.5805 33.0915 16.8851 32.9988 16.8851 32.9988C17.284 32.9826 18.6204 32.9988 20.138 32.2795C21.8213 31.4822 22.7796 30.2942 22.7796 30.2942C23.3918 29.5844 23.8786 28.7755 24.2191 27.9021C24.6076 26.8808 24.7373 25.6559 24.7373 25.1663V16.3584C24.7894 16.3897 25.4831 16.8485 25.4831 16.8485C25.4831 16.8485 26.4825 17.4891 28.0418 17.9063C29.1605 18.2031 30.6677 18.2656 30.6677 18.2656V14.0033C30.1396 14.0606 29.0673 13.894 27.9694 13.3466Z" fill="white"/>
</svg>
