<svg width="40" height="40" viewBox="0 0 40 40" fill="none" xmlns="http://www.w3.org/2000/svg">
<rect width="40" height="40" rx="8" fill="#D9D9D9"/>
<path fill-rule="evenodd" clip-rule="evenodd" d="M30.267 11.5227C31.3433 11.8108 32.1892 12.6567 32.4772 13.733C32.9979 15.6818 33 19.7504 33 19.7504C33 19.7504 33 23.819 32.4772 25.7679C32.1892 26.8442 31.3433 27.69 30.267 27.9781C28.3182 28.5008 20.5 28.5008 20.5 28.5008C20.5 28.5008 12.6818 28.5008 10.733 27.9781C9.65665 27.69 8.81083 26.8442 8.52272 25.7679C8 23.819 8 19.7504 8 19.7504C8 19.7504 8 15.6818 8.52272 13.733C8.81083 12.6567 9.65665 11.8108 10.733 11.5227C12.6818 11 20.5 11 20.5 11C20.5 11 28.3182 11 30.267 11.5227ZM24.4925 19.7508L17.9976 23.5003V16.0011L24.4925 19.7508Z" fill="#FF0000"/>
</svg>
